<mxfile host="app.diagrams.net" modified="2021-07-02T10:31:41.066Z" agent="5.0 (Windows NT 10.0; Win64; x64) AppleWebKit/537.36 (KHTML, like Gecko) Chrome/91.0.4472.114 Safari/537.36" etag="Yl784esVYv8qlW8yEW19" version="14.8.1" type="github">
  <diagram id="TSuh8Hgfy2WMczQRkBJs" name="第 1 页">
    <mxGraphModel dx="1422" dy="826" grid="0" gridSize="10" guides="1" tooltips="1" connect="1" arrows="1" fold="1" page="0" pageScale="1" pageWidth="827" pageHeight="1169" math="0" shadow="0">
      <root>
        <mxCell id="0" />
        <mxCell id="1" parent="0" />
      </root>
    </mxGraphModel>
  </diagram>
</mxfile>
